<?xml version="1.0" encoding="UTF-8" standalone="no"?>
<svg
   version="1.1"
   id="svg32"
   sodipodi:docname="Fennecs Logo Horizontal + Tagline (1).svg"
   inkscape:export-filename="..\fennecs-logo-nuget.svg"
   inkscape:export-xdpi="96"
   inkscape:export-ydpi="96"
   width="850"
   height="200"
   xmlns:inkscape="http://www.inkscape.org/namespaces/inkscape"
   xmlns:sodipodi="http://sodipodi.sourceforge.net/DTD/sodipodi-0.dtd"
   xmlns:xlink="http://www.w3.org/1999/xlink"
   xmlns="http://www.w3.org/2000/svg"
   xmlns:svg="http://www.w3.org/2000/svg">
  <defs
     id="defs32" />
  <sodipodi:namedview
     id="namedview32"
     pagecolor="#505050"
     bordercolor="#ffffff"
     borderopacity="1"
     inkscape:showpageshadow="0"
     inkscape:pageopacity="0"
     inkscape:pagecheckerboard="1"
     inkscape:deskcolor="#505050" />
  <linearGradient
     id="a">
    <stop
       offset="0"
       stop-color="#ff4e03"
       id="stop1" />
    <stop
       offset="1"
       stop-color="#ee8000"
       id="stop2" />
  </linearGradient>
  <linearGradient
     id="b"
     gradientUnits="userSpaceOnUse"
     x1="99.212601"
     x2="315.76089"
     xlink:href="#a"
     y1="518.77618"
     y2="518.77618"
     gradientTransform="translate(-100,-400)" />
  <linearGradient
     id="c"
     gradientUnits="userSpaceOnUse"
     x1="99.212601"
     x2="315.76089"
     xlink:href="#a"
     y1="467.58081"
     y2="467.58081"
     gradientTransform="translate(-100,-400)" />
  <path
     d="M -100,-400 H 900 V 600 H -100 Z"
     fill="#ffffff"
     id="path2" />
  <path
     d="m 247.19,176.12 -57.47,-39.1 5.05,31.32 -71.24,-45.14 4.13,25.53 L 0,61.44 l 88.37,41.3 -5.42,-33.54 67.5,42.77 0.26,0.16 -0.05,-0.32 -6.26,-38.82 102.79,69.9 z"
     fill="url(#b)"
     id="path3"
     style="fill:url(#b)" />
  <path
     d="M 261.1,23.88 V 85.51 L 223.23,111.28 185.34,85.51 V 23.88 l 47.98,38.2 -6.64,-10.8 z"
     fill="url(#c)"
     id="path4"
     style="fill:url(#c)" />
  <path
     d="M 312.87,92.07 H 301.06 V 78.48 h 11.81 v -4.81 c 0,-7.41 2.22,-13.16 6.66,-17.23 4.44,-4.07 10.69,-6.11 18.74,-6.11 h 8.37 v 13.46 h -8.1 c -3.39,0 -5.88,0.8 -7.48,2.4 -1.6,1.6 -2.4,4.14 -2.4,7.62 v 4.67 h 16.48 v 13.59 h -16.48 v 54.92 h -15.79 z"
     fill="#142458"
     id="path5" />
  <path
     d="m 364.57,144.93 c -4.26,-2.1 -7.55,-5.08 -9.89,-8.92 -2.34,-3.84 -3.5,-8.28 -3.5,-13.32 v -18.4 c 0,-5.31 1.17,-10 3.5,-14.07 2.33,-4.07 5.63,-7.23 9.89,-9.47 4.26,-2.24 9.18,-3.36 14.76,-3.36 h 10.98 c 8.33,0 15.01,2.43 20.05,7.28 5.03,4.85 7.55,11.31 7.55,19.36 v 13.73 h -50.94 v 4.94 c 0,3.66 1.12,6.59 3.36,8.79 2.24,2.2 5.24,3.3 8.99,3.3 h 10.57 c 3.66,0 6.61,-0.89 8.86,-2.68 2.24,-1.79 3.36,-4.14 3.36,-7.07 h 15.51 c 0,6.96 -2.56,12.54 -7.69,16.75 -5.13,4.21 -11.85,6.32 -20.18,6.32 h -10.44 c -5.57,-0.02 -10.49,-1.07 -14.74,-3.18 z m 37.82,-38.99 v -1.92 c 0,-4.03 -1.1,-7.28 -3.3,-9.75 -2.2,-2.47 -5.08,-3.71 -8.65,-3.71 h -11.12 c -3.75,0 -6.8,1.3 -9.13,3.91 -2.33,2.61 -3.5,6.02 -3.5,10.23 v 1.24 z"
     fill="#142458"
     id="path6" />
  <path
     d="m 432.05,78.48 h 14.69 v 8.92 c 2.01,-3.02 4.67,-5.45 7.96,-7.28 3.29,-1.83 6.59,-2.75 9.88,-2.75 h 8.51 c 7.05,0 12.7,2.24 16.96,6.73 4.26,4.49 6.39,10.39 6.39,17.71 v 45.17 h -15.79 v -44.76 c 0,-3.3 -0.85,-5.97 -2.54,-8.03 -1.69,-2.06 -3.91,-3.09 -6.66,-3.09 h -8.51 c -3.57,0 -6.77,1.35 -9.61,4.05 -2.84,2.7 -4.67,6.16 -5.49,10.37 v 41.46 h -15.79 z"
     fill="#142458"
     id="path7" />
  <path
     d="m 513.19,78.48 h 14.69 v 8.92 c 2.01,-3.02 4.67,-5.45 7.96,-7.28 3.3,-1.83 6.59,-2.75 9.89,-2.75 h 8.51 c 7.05,0 12.7,2.24 16.96,6.73 4.26,4.49 6.38,10.39 6.38,17.71 v 45.17 h -15.79 v -44.76 c 0,-3.3 -0.85,-5.97 -2.54,-8.03 -1.69,-2.06 -3.91,-3.09 -6.66,-3.09 h -8.51 c -3.57,0 -6.78,1.35 -9.61,4.05 -2.84,2.7 -4.67,6.16 -5.49,10.37 v 41.46 h -15.79 z"
     fill="#142458"
     id="path8" />
  <path
     d="m 600.23,141.3 c -4.67,-4.53 -7,-10.55 -7,-18.05 v -19.63 c 0,-7.87 2.33,-14.21 7,-19.02 4.67,-4.81 10.85,-7.21 18.54,-7.21 h 11.26 c 7.32,0 13.23,2.33 17.71,7 4.48,4.67 6.73,10.85 6.73,18.54 V 115 h -51.35 v 8.24 c 0,4.76 1.44,8.63 4.33,11.6 2.88,2.98 6.66,4.46 11.33,4.46 h 10.43 c 4.58,0 8.28,-1.26 11.12,-3.78 2.84,-2.52 4.26,-5.88 4.26,-10.09 h 9.61 c 0,6.78 -2.29,12.24 -6.87,16.41 -4.58,4.17 -10.62,6.25 -18.12,6.25 h -10.43 c -7.7,0 -13.88,-2.26 -18.55,-6.79 z m 44.35,-34.81 v -3.57 c 0,-5.03 -1.33,-9.08 -3.98,-12.15 -2.66,-3.07 -6.18,-4.6 -10.57,-4.6 h -11.26 c -4.67,0 -8.44,1.6 -11.33,4.81 -2.88,3.21 -4.33,7.41 -4.33,12.63 v 2.88 z"
     fill="#142458"
     id="path9" />
  <path
     d="m 675.88,141.3 c -4.58,-4.53 -6.86,-10.55 -6.86,-18.05 v -19.63 c 0,-7.87 2.29,-14.21 6.86,-19.02 4.58,-4.81 10.57,-7.21 17.99,-7.21 h 11.26 c 7.05,0 12.72,1.97 17.02,5.9 4.3,3.94 6.45,9.11 6.45,15.51 H 719 c 0,-3.75 -1.26,-6.8 -3.78,-9.13 -2.52,-2.33 -5.88,-3.5 -10.09,-3.5 h -11.26 c -4.49,0 -8.1,1.6 -10.85,4.81 -2.75,3.21 -4.12,7.41 -4.12,12.63 v 19.63 c 0,4.85 1.4,8.74 4.19,11.67 2.79,2.93 6.43,4.39 10.91,4.39 h 11.26 c 4.3,0 7.76,-1.51 10.37,-4.53 2.61,-3.02 3.91,-7.05 3.91,-12.08 h 9.61 c 0,7.6 -2.2,13.73 -6.59,18.4 -4.39,4.67 -10.16,7 -17.3,7 H 694 c -7.5,0 -13.54,-2.26 -18.12,-6.79 z"
     fill="#142458"
     id="path10" />
  <path
     d="m 748.1,142.19 c -4.21,-3.93 -6.32,-9.11 -6.32,-15.51 h 9.61 c 0,3.84 1.24,6.96 3.71,9.34 2.47,2.38 5.72,3.57 9.75,3.57 h 11.94 c 3.93,0 7.14,-0.8 9.61,-2.4 2.47,-1.6 3.71,-3.68 3.71,-6.25 v -4.67 c 0,-1.74 -0.69,-3.27 -2.06,-4.6 -1.37,-1.33 -3.16,-2.22 -5.35,-2.68 l -23.75,-4.12 c -4.76,-0.82 -8.58,-2.63 -11.46,-5.42 -2.88,-2.79 -4.33,-6.06 -4.33,-9.82 V 95.1 c 0,-5.31 2.01,-9.59 6.04,-12.84 4.03,-3.25 9.34,-4.87 15.93,-4.87 h 11.81 c 6.41,0 11.58,1.81 15.51,5.42 3.94,3.62 5.9,8.4 5.9,14.35 h -9.61 c -0.09,-3.39 -1.21,-6.11 -3.36,-8.17 -2.15,-2.06 -4.97,-3.09 -8.44,-3.09 h -11.81 c -3.66,0 -6.59,0.85 -8.79,2.54 -2.2,1.69 -3.3,3.91 -3.3,6.66 v 3.98 c 0,1.74 0.76,3.3 2.27,4.67 1.51,1.37 3.45,2.24 5.84,2.61 l 23.62,4.12 c 4.58,0.82 8.26,2.61 11.05,5.35 2.79,2.75 4.19,6.04 4.19,9.89 v 5.49 c 0,5.03 -2.13,9.11 -6.39,12.22 -4.26,3.11 -9.86,4.67 -16.82,4.67 h -11.94 c -6.96,-0.01 -12.55,-1.97 -16.76,-5.91 z"
     fill="#142458"
     id="path11" />
  <g
     fill="#ee8000"
     id="g32"
     transform="translate(-100,-400)">
    <path
       d="m 484.15,575.52 c -0.29,-0.28 -0.43,-0.67 -0.43,-1.16 v -13.19 h 10.36 v 1.75 h -8.36 v 4.6 h 7.72 v 1.73 h -7.72 v 4.94 h 8.36 v 1.75 h -8.76 c -0.49,0.01 -0.88,-0.13 -1.17,-0.42 z"
       id="path12" />
    <path
       d="m 499.1,561.17 h 1.86 l 7.81,11.54 v -11.54 h 1.96 v 14.77 h -1.84 l -7.83,-11.5 v 11.5 h -1.96 z"
       id="path13" />
    <path
       d="m 520.02,562.92 h -4.69 v -1.75 h 11.38 v 1.75 h -4.69 v 13.02 h -2.01 v -13.02 z"
       id="path14" />
    <path
       d="m 531.52,561.17 h 2.01 v 14.77 h -2.01 z"
       id="path15" />
    <path
       d="m 543.02,562.92 h -4.69 v -1.75 h 11.38 v 1.75 h -4.69 v 13.02 h -2.01 v -13.02 z"
       id="path16" />
    <path
       d="m 558.41,570.25 -5.45,-9.08 h 2.17 l 4.28,7.24 4.28,-7.24 h 2.17 l -5.45,9.08 v 5.7 h -2.03 v -5.7 z"
       id="path17" />
    <path
       d="m 580.36,575.44 c -0.76,-0.45 -1.35,-1.09 -1.76,-1.91 -0.42,-0.82 -0.62,-1.78 -0.62,-2.86 v -4.22 c 0,-1.08 0.21,-2.04 0.63,-2.86 0.42,-0.82 1.02,-1.46 1.78,-1.91 0.77,-0.45 1.66,-0.68 2.67,-0.68 h 2.24 c 0.96,0 1.8,0.21 2.54,0.62 0.74,0.42 1.31,1 1.71,1.74 0.4,0.75 0.6,1.6 0.6,2.57 h -1.96 c 0,-0.94 -0.26,-1.7 -0.79,-2.28 -0.53,-0.58 -1.23,-0.87 -2.1,-0.87 h -2.24 c -0.91,0 -1.66,0.34 -2.23,1.01 -0.57,0.68 -0.85,1.57 -0.85,2.68 v 4.14 c 0,1.11 0.27,2 0.82,2.68 0.55,0.68 1.27,1.01 2.17,1.01 h 2.28 c 0.9,0 1.62,-0.32 2.16,-0.96 0.54,-0.64 0.81,-1.48 0.81,-2.52 h 1.96 c 0,1.04 -0.2,1.96 -0.61,2.77 -0.41,0.8 -0.98,1.42 -1.73,1.86 -0.75,0.44 -1.61,0.65 -2.6,0.65 h -2.28 c -0.97,0.02 -1.84,-0.21 -2.6,-0.66 z"
       id="path18" />
    <path
       d="m 597.09,575.44 c -0.78,-0.45 -1.39,-1.08 -1.82,-1.9 -0.43,-0.82 -0.64,-1.77 -0.64,-2.85 v -4.26 c 0,-1.08 0.21,-2.03 0.64,-2.85 0.43,-0.82 1.04,-1.45 1.83,-1.9 0.79,-0.45 1.7,-0.68 2.72,-0.68 h 2.24 c 1.03,0 1.93,0.23 2.71,0.68 0.78,0.45 1.39,1.08 1.82,1.9 0.43,0.82 0.64,1.77 0.64,2.85 v 4.26 c 0,1.08 -0.21,2.03 -0.64,2.85 -0.43,0.82 -1.04,1.45 -1.83,1.9 -0.79,0.45 -1.69,0.68 -2.7,0.68 h -2.26 c -1.03,0 -1.93,-0.23 -2.71,-0.68 z m 4.92,-1.12 c 0.96,0 1.73,-0.33 2.32,-1 0.59,-0.67 0.89,-1.56 0.89,-2.67 v -4.18 c 0,-1.11 -0.3,-2 -0.89,-2.67 -0.59,-0.67 -1.37,-1 -2.32,-1 h -2.17 c -0.96,0 -1.73,0.33 -2.32,1 -0.59,0.67 -0.89,1.56 -0.89,2.67 v 4.18 c 0,1.11 0.29,2 0.88,2.67 0.58,0.67 1.35,1 2.31,1 z"
       id="path19" />
    <path
       d="m 612.46,561.17 h 1.86 l 5.13,9.48 5,-9.48 h 1.86 v 14.77 h -1.96 v -11.02 l -3.88,7.26 c -0.17,0.31 -0.33,0.53 -0.47,0.65 -0.15,0.13 -0.32,0.19 -0.52,0.19 h -0.57 l -4.45,-8.1 v 11.02 h -1.98 v -14.77 z"
       id="path20" />
    <path
       d="m 631.96,561.17 h 7.37 c 1.17,0 2.11,0.33 2.82,0.98 0.71,0.65 1.07,1.52 1.07,2.61 v 2.11 c 0,1.14 -0.38,2.06 -1.13,2.75 -0.75,0.7 -1.75,1.04 -2.99,1.04 h -5.13 v 5.28 h -2.01 z m 7.1,7.73 c 0.65,0 1.17,-0.19 1.56,-0.58 0.39,-0.39 0.59,-0.9 0.59,-1.53 v -2 c 0,-0.55 -0.18,-0.99 -0.53,-1.33 -0.35,-0.34 -0.82,-0.51 -1.39,-0.51 h -5.32 v 5.95 z"
       id="path21" />
    <path
       d="m 649.89,575.44 c -0.78,-0.45 -1.39,-1.08 -1.82,-1.9 -0.43,-0.82 -0.64,-1.77 -0.64,-2.85 v -4.26 c 0,-1.08 0.21,-2.03 0.64,-2.85 0.43,-0.82 1.04,-1.45 1.83,-1.9 0.79,-0.45 1.7,-0.68 2.72,-0.68 h 2.24 c 1.03,0 1.93,0.23 2.71,0.68 0.78,0.45 1.39,1.08 1.82,1.9 0.43,0.82 0.64,1.77 0.64,2.85 v 4.26 c 0,1.08 -0.21,2.03 -0.64,2.85 -0.43,0.82 -1.04,1.45 -1.83,1.9 -0.79,0.45 -1.69,0.68 -2.7,0.68 h -2.26 c -1.02,0 -1.93,-0.23 -2.71,-0.68 z m 4.93,-1.12 c 0.96,0 1.73,-0.33 2.32,-1 0.59,-0.67 0.89,-1.56 0.89,-2.67 v -4.18 c 0,-1.11 -0.3,-2 -0.89,-2.67 -0.59,-0.67 -1.37,-1 -2.32,-1 h -2.17 c -0.96,0 -1.73,0.33 -2.32,1 -0.59,0.67 -0.89,1.56 -0.89,2.67 v 4.18 c 0,1.11 0.29,2 0.88,2.67 0.58,0.67 1.35,1 2.31,1 z"
       id="path22" />
    <path
       d="m 665.27,561.17 h 1.86 l 7.81,11.54 v -11.54 h 1.96 v 14.77 h -1.84 l -7.83,-11.5 v 11.5 h -1.96 z"
       id="path23" />
    <path
       d="m 682.99,575.52 c -0.29,-0.28 -0.43,-0.67 -0.43,-1.16 v -13.19 h 10.36 v 1.75 h -8.36 v 4.6 h 7.72 v 1.73 h -7.72 v 4.94 h 8.36 v 1.75 h -8.76 c -0.49,0.01 -0.88,-0.13 -1.17,-0.42 z"
       id="path24" />
    <path
       d="m 697.94,561.17 h 1.86 l 7.81,11.54 v -11.54 h 1.96 v 14.77 h -1.84 l -7.83,-11.5 v 11.5 h -1.96 z"
       id="path25" />
    <path
       d="m 718.86,562.92 h -4.69 v -1.75 h 11.38 v 1.75 h -4.69 v 13.02 h -2.01 v -13.02 z"
       id="path26" />
    <path
       d="m 739.08,574.89 c -0.82,-0.82 -1.22,-1.91 -1.22,-3.29 h 1.96 c 0,0.83 0.24,1.49 0.71,1.98 0.47,0.49 1.09,0.74 1.87,0.74 h 2.34 c 0.77,0 1.39,-0.17 1.86,-0.5 0.46,-0.33 0.7,-0.77 0.7,-1.32 v -1.14 c 0,-0.44 -0.17,-0.8 -0.5,-1.1 -0.33,-0.3 -0.8,-0.49 -1.4,-0.59 l -3.84,-0.63 c -1.13,-0.18 -1.99,-0.57 -2.61,-1.16 -0.61,-0.59 -0.92,-1.33 -0.92,-2.22 v -1.16 c 0,-1.06 0.4,-1.9 1.21,-2.54 0.81,-0.64 1.87,-0.96 3.2,-0.96 h 2.39 c 0.83,0 1.56,0.17 2.21,0.52 0.64,0.35 1.14,0.83 1.49,1.46 0.35,0.63 0.53,1.35 0.53,2.16 h -1.98 c 0,-0.7 -0.2,-1.27 -0.61,-1.7 -0.41,-0.43 -0.95,-0.64 -1.62,-0.64 h -2.39 c -0.72,0 -1.3,0.16 -1.74,0.47 -0.44,0.32 -0.66,0.75 -0.66,1.3 v 0.95 c 0,0.45 0.16,0.82 0.47,1.12 0.32,0.3 0.77,0.5 1.36,0.61 l 3.8,0.65 c 1.17,0.2 2.06,0.58 2.69,1.15 0.63,0.57 0.94,1.28 0.94,2.14 v 1.37 c 0,1.07 -0.41,1.93 -1.23,2.58 -0.82,0.65 -1.92,0.97 -3.28,0.97 h -2.43 c -1.4,0.01 -2.49,-0.4 -3.3,-1.22 z"
       id="path27" />
    <path
       d="m 758.01,570.25 -5.45,-9.08 h 2.17 l 4.28,7.24 4.28,-7.24 h 2.17 l -5.45,9.08 v 5.7 h -2.03 v -5.7 z"
       id="path28" />
    <path
       d="m 770.08,574.89 c -0.82,-0.82 -1.22,-1.91 -1.22,-3.29 h 1.96 c 0,0.83 0.24,1.49 0.71,1.98 0.47,0.49 1.09,0.74 1.87,0.74 h 2.34 c 0.77,0 1.39,-0.17 1.86,-0.5 0.46,-0.33 0.7,-0.77 0.7,-1.32 v -1.14 c 0,-0.44 -0.17,-0.8 -0.5,-1.1 -0.33,-0.3 -0.8,-0.49 -1.4,-0.59 l -3.84,-0.63 c -1.13,-0.18 -1.99,-0.57 -2.61,-1.16 -0.61,-0.59 -0.92,-1.33 -0.92,-2.22 v -1.16 c 0,-1.06 0.4,-1.9 1.21,-2.54 0.81,-0.64 1.87,-0.96 3.2,-0.96 h 2.39 c 0.83,0 1.56,0.17 2.21,0.52 0.64,0.35 1.14,0.83 1.49,1.46 0.35,0.63 0.53,1.35 0.53,2.16 h -1.98 c 0,-0.7 -0.2,-1.27 -0.61,-1.7 -0.41,-0.43 -0.95,-0.64 -1.62,-0.64 h -2.39 c -0.72,0 -1.3,0.16 -1.74,0.47 -0.44,0.32 -0.66,0.75 -0.66,1.3 v 0.95 c 0,0.45 0.16,0.82 0.47,1.12 0.32,0.3 0.77,0.5 1.36,0.61 l 3.8,0.65 c 1.17,0.2 2.06,0.58 2.69,1.15 0.63,0.57 0.94,1.28 0.94,2.14 v 1.37 c 0,1.07 -0.41,1.93 -1.23,2.58 -0.82,0.65 -1.92,0.97 -3.28,0.97 h -2.43 c -1.39,0.01 -2.48,-0.4 -3.3,-1.22 z"
       id="path29" />
    <path
       d="m 788.63,562.92 h -4.69 v -1.75 h 11.38 v 1.75 h -4.69 v 13.02 h -2.01 v -13.02 z"
       id="path30" />
    <path
       d="m 800.36,575.52 c -0.29,-0.28 -0.43,-0.67 -0.43,-1.16 v -13.19 h 10.36 v 1.75 h -8.36 v 4.6 h 7.72 v 1.73 h -7.72 v 4.94 h 8.36 v 1.75 h -8.76 c -0.49,0.01 -0.88,-0.13 -1.17,-0.42 z"
       id="path31" />
    <path
       d="m 815.31,561.17 h 1.86 l 5.13,9.48 5,-9.48 h 1.86 v 14.77 h -1.96 v -11.02 l -3.88,7.26 c -0.17,0.31 -0.33,0.53 -0.47,0.65 -0.15,0.13 -0.32,0.19 -0.52,0.19 h -0.57 l -4.45,-8.1 v 11.02 h -1.98 v -14.77 z"
       id="path32" />
  </g>
</svg>
