<?xml version="1.0" standalone="no"?>
<!DOCTYPE svg PUBLIC "-//W3C//DTD SVG 20010904//EN"
 "http://www.w3.org/TR/2001/REC-SVG-20010904/DTD/svg10.dtd">
<svg version="1.0" xmlns="http://www.w3.org/2000/svg"
 width="700.000000pt" height="700.000000pt" viewBox="0 0 700.000000 700.000000"
 preserveAspectRatio="xMidYMid meet">
<metadata>
Created by potrace 1.14, written by Peter Selinger 2001-2017
</metadata>
<g transform="translate(0.000000,700.000000) scale(0.100000,-0.100000)"
fill="#000000" stroke="none">
<path d="M460 4533 l0 -2468 1521 -1032 1520 -1033 1519 1032 1520 1033 0
2462 c0 1355 -3 2463 -7 2463 -7 0 -2710 -2144 -2741 -2174 -11 -11 34 -89
247 -436 144 -233 260 -424 259 -426 -2 -1 -840 664 -1863 1477 -1023 814
-1886 1500 -1917 1525 l-58 45 0 -2468z"/>
</g>
</svg>
