<svg height="137.82677mm" viewBox="0 0 190.0502 137.82677" width="190.0502mm" xmlns="http://www.w3.org/2000/svg" xmlns:xlink="http://www.w3.org/1999/xlink">
	<linearGradient id="a" gradientUnits="userSpaceOnUse" x1="-.2297590468" x2="131.03124804952" xlink:href="#b" y1="57.77235678938" y2="57.77235678938"/>
	<linearGradient id="b">
		<stop offset="0" stop-color="#ff4e03"/>
		<stop offset="1" stop-color="#ee8000"/>
	</linearGradient>
	<linearGradient id="c" gradientUnits="userSpaceOnUse" x1="-.2297590468" x2="131.03124804952" xlink:href="#b" y1="26.7402537845" y2="26.7402537845"/>
	<g transform="translate(-.246333 -.252658)">
		<g stroke-width=".264583">
			<path d="m150.08516 92.528742-34.84033-23.696085 3.06387 18.981205-43.182637-27.363205 2.50031 15.480771-77.38004012-52.91402 53.56754012 25.03752-3.28612-20.333229 40.91516 25.923875.15611.09525-.0291-.193146-3.79148-23.529396 62.306727 42.373021z" fill="url(#a)"/>
			<path d="m158.51479.25265771v37.35916629l-22.9579 15.615708-22.96583-15.615708v-37.35916629l29.083 23.15368729-4.02696-6.545792z" fill="url(#c)"/>
			<path d="m22.799413 109.18161h-4.05871v-4.67518h4.05871v-1.651c0-2.55059.762-4.524378 2.28865-5.924028 1.52664-1.39964 3.67506-2.10079 6.44525-2.10079h2.87866v4.62757h-2.78606c-1.16416 0-2.02141.27516-2.57439.825498-.55034.55033-.8255 1.42345-.8255 2.61937v1.60602h5.66473v4.67519h-5.66473v18.88331h-5.42925v-18.88596z" fill="#142458"/>
			<path d="m40.576773 127.35584c-1.46315-.72496-2.59557-1.74625-3.3999-3.06916-.80169-1.32292-1.20385-2.84692-1.20385-4.57994v-6.32619c0-1.82562.40216-3.43694 1.20385-4.83923.80169-1.39964 1.93675-2.48708 3.3999-3.25702 1.46314-.76994 3.15383-1.15623 5.0747-1.15623h3.77825c2.8628 0 5.16203.83344 6.8924 2.50296 1.73038 1.66952 2.59556 3.88673 2.59556 6.65692v4.72016h-17.51541v1.69863c0 1.25941.38629 2.26483 1.15623 3.02154.76993.75671 1.80181 1.13242 3.09297 1.13242h3.63538c1.25942 0 2.27277-.30692 3.04535-.92075.76994-.61384 1.15623-1.42346 1.15623-2.43152h5.334c0 2.39183-.88106 4.3127-2.64318 5.75997-1.76213 1.44728-4.07723 2.17223-6.94003 2.17223h-3.58775c-1.92087.003-3.61156-.35983-5.0747-1.08479zm13.00691-13.40644v-.66145c0-1.38377-.37835-2.50296-1.13241-3.35227-.75407-.84932-1.74625-1.2753-2.97392-1.2753h-3.82323c-1.29117 0-2.33627.4498-3.13796 1.34673-.80169.89694-1.20385 2.06904-1.20385 3.51632v.42597z" fill="#142458"/>
			<path d="m63.778083 104.50643h5.05089v3.06916c.69321-1.03981 1.60602-1.87325 2.73844-2.50296 1.13242-.6297 2.26483-.94456 3.3999-.94456h2.92629c2.42358 0 4.36562.77258 5.83142 2.31246 1.46314 1.54252 2.19604 3.57187 2.19604 6.09071v15.53104h-5.42925v-15.39081c0-1.13242-.29104-2.05317-.87313-2.76225-.58208-.70909-1.34673-1.06098-2.28864-1.06098h-2.9263c-1.22766 0-2.32833.46566-3.30464 1.39171-.97631.92868-1.60602 2.11666-1.88913 3.56393v14.2584h-5.42925v-23.55585z" fill="#142458"/>
			<path d="m91.681043 104.50643h5.05089v3.06916c.69056-1.03981 1.60602-1.87325 2.73844-2.50296 1.132417-.6297 2.264827-.94456 3.399897-.94456h2.92629c2.42358 0 4.36562.77258 5.83141 2.31246 1.46315 1.54252 2.19605 3.57187 2.19605 6.09071v15.53104h-5.42925v-15.39081c0-1.13242-.29105-2.05317-.87313-2.76225-.58208-.70909-1.34673-1.06098-2.28865-1.06098h-2.92629c-1.22766 0-2.330977.46566-3.304637 1.39171-.97632.92868-1.60602 2.11666-1.88913 3.56393v14.2584h-5.42925v-23.55585z" fill="#142458"/>
			<path d="m121.6107 126.10436c-1.60602-1.55839-2.40771-3.62743-2.40771-6.20712v-6.75217c0-2.70669.80169-4.88685 2.40771-6.53785s3.73063-2.47915 6.37382-2.47915h3.87085c2.51883 0 4.54819.80169 6.09071 2.40771s2.31246 3.73062 2.31246 6.37381v4.15396h-17.6583v2.83369c0 1.63777.49742 2.96598 1.48696 3.98991.99219 1.02394 2.28865 1.53459 3.89467 1.53459h3.58775c1.57427 0 2.84956-.43127 3.82323-1.29911.97631-.86518 1.46314-2.02141 1.46314-3.46868h3.30465c0 2.33098-.78846 4.20952-2.36008 5.64091-1.57427 1.4314-3.65125 2.14842-6.23094 2.14842h-3.58775c-2.64054 0-4.76515-.78052-6.37117-2.33892zm15.24794-11.9671v-1.22767c0-1.73037-.45508-3.12208-1.3679-4.17777-.91281-1.05304-2.1246-1.58221-3.63537-1.58221h-3.87085c-1.60603 0-2.90248.55034-3.89467 1.651-.99219 1.10332-1.48696 2.55059-1.48696 4.34446v.99219z" fill="#142458"/>
			<path d="m147.62189 126.10436c-1.57427-1.55839-2.36008-3.62743-2.36008-6.20712v-6.75217c0-2.70669.78581-4.88685 2.36008-6.53785s3.63537-2.47915 6.18596-2.47915h3.87085c2.42359 0 4.37356.67733 5.85523 2.02936 1.47902 1.35466 2.21986 3.13266 2.21986 5.334h-3.30465c0-1.29117-.43392-2.33628-1.2991-3.14061-.86519-.80169-2.02142-1.20385-3.46869-1.20385h-3.87086c-1.54252 0-2.78606.55033-3.73062 1.651-.94456 1.10331-1.41552 2.55058-1.41552 4.34446v6.75216c0 1.66952.47889 3.00567 1.43933 4.01373s2.21192 1.51077 3.75179 1.51077h3.87086c1.47902 0 2.667-.51858 3.56393-1.55839.89694-1.03982 1.34409-2.42359 1.34409-4.15396h3.30464c0 2.61408-.7567 4.72016-2.26483 6.32619-1.51077 1.60602-3.4925 2.4077-5.94783 2.4077h-3.87086c-2.58233.003-4.65931-.77787-6.23358-2.33627z" fill="#142458"/>
			<path d="m172.45568 126.41128c-1.44727-1.35202-2.17223-3.13267-2.17223-5.334h3.30465c0 1.32292.42598 2.39183 1.27529 3.2094.84931.81756 1.96585 1.22766 3.35227 1.22766h4.10633c1.35202 0 2.45534-.27516 3.30465-.8255.84931-.55033 1.27529-1.26735 1.27529-2.14841v-1.60603c0-.59795-.23548-1.12447-.70908-1.5822-.47361-.45509-1.08479-.762-1.8415-.92075l-8.16769-1.41552c-1.63777-.28311-2.9501-.90488-3.94229-1.86532-.99219-.96043-1.48696-2.08491-1.48696-3.37608v-1.5584c0-1.82562.69056-3.2967 2.07698-4.41325 1.38377-1.11654 3.2094-1.67481 5.47687-1.67481h4.06136c2.20133 0 3.98198.62177 5.334 1.86531 1.35202 1.24355 2.02935 2.88925 2.02935 4.93448h-3.30464c-.0317-1.16416-.41804-2.10079-1.15623-2.80987-.74084-.70909-1.70921-1.06363-2.90248-1.06363h-4.06136c-1.25941 0-2.26483.29104-3.02154.87313-.75671.58208-1.13241 1.34673-1.13241 2.28864v1.3679c0 .59796.25929 1.13242.77787 1.60602.51858.47096 1.18798.77258 2.00554.89694l8.12007 1.41552c1.57427.2831 2.83897.89694 3.79941 1.8415s1.43934 2.07698 1.43934 3.39989v1.88913c0 1.73037-.7329 3.13267-2.19605 4.20158-1.46314 1.07157-3.39195 1.60602-5.78379 1.60602h-4.10633c-2.38654.003-4.30742-.67468-5.75469-2.02935z" fill="#142458"/>
		</g>
		<g fill="#ee8000" transform="matrix(.26458333 0 0 .26458333 -37.017584 -63.125633)">
			<path d="m318.72 759.69c-.38-.37-.56-.87-.56-1.51v-17.14h13.47v2.28h-10.86v5.98h10.04v2.25h-10.04v6.42h10.86v2.28h-11.38c-.65-.01-1.16-.2-1.53-.56z"/>
			<path d="m338.15 741.04h2.41l10.15 15v-15h2.55v19.2h-2.39l-10.18-14.95v14.95h-2.55v-19.2z"/>
			<path d="m365.33 743.31h-6.09v-2.28h14.78v2.28h-6.09v16.92h-2.61v-16.92z"/>
			<path d="m380.28 741.04h2.61v19.2h-2.61z"/>
			<path d="m395.23 743.31h-6.09v-2.28h14.78v2.28h-6.09v16.92h-2.61v-16.92z"/>
			<path d="m415.23 752.83-7.08-11.79h2.83l5.57 9.41 5.57-9.41h2.82l-7.08 11.79v7.41h-2.63z"/>
			<path d="m443.75 759.58c-.99-.58-1.75-1.41-2.29-2.48s-.81-2.31-.81-3.72v-5.49c0-1.41.27-2.65.82-3.72s1.32-1.9 2.32-2.48c1-.59 2.15-.88 3.47-.88h2.91c1.24 0 2.35.27 3.31.81s1.7 1.29 2.22 2.26.78 2.08.78 3.35h-2.55c0-1.22-.34-2.21-1.03-2.96s-1.6-1.12-2.73-1.12h-2.91c-1.19 0-2.15.44-2.89 1.32s-1.11 2.04-1.11 3.48v5.38c0 1.44.36 2.61 1.07 3.48s1.65 1.32 2.83 1.32h2.96c1.17 0 2.11-.42 2.81-1.25s1.06-1.92 1.06-3.28h2.55c0 1.35-.27 2.55-.8 3.59s-1.28 1.85-2.25 2.41c-.97.57-2.09.85-3.37.85h-2.96c-1.29.01-2.42-.29-3.41-.87z"/>
			<path d="m465.49 759.58c-1.02-.58-1.8-1.41-2.36-2.47s-.84-2.29-.84-3.7v-5.54c0-1.41.28-2.64.84-3.7s1.35-1.88 2.37-2.47 2.2-.88 3.54-.88h2.91c1.33 0 2.51.29 3.52.88s1.8 1.41 2.36 2.47.84 2.3.84 3.7v5.54c0 1.41-.28 2.64-.84 3.7s-1.35 1.88-2.37 2.47-2.19.88-3.51.88h-2.93c-1.34 0-2.52-.3-3.53-.88zm6.4-1.46c1.24 0 2.25-.43 3.02-1.3s1.15-2.03 1.15-3.47v-5.43c0-1.44-.38-2.6-1.15-3.47s-1.77-1.3-3.02-1.3h-2.83c-1.24 0-2.25.43-3.02 1.3s-1.15 2.03-1.15 3.47v5.43c0 1.44.38 2.6 1.14 3.47s1.76 1.3 3 1.3z"/>
			<path d="m485.47 741.04h2.41l6.67 12.32 6.5-12.32h2.41v19.2h-2.55v-14.32l-5.05 9.44c-.22.4-.42.69-.62.85-.19.16-.42.25-.67.25h-.74l-5.79-10.53v14.32h-2.58v-19.21z"/>
			<path d="m510.82 741.04h9.57c1.52 0 2.74.43 3.66 1.28s1.39 1.98 1.39 3.39v2.74c0 1.48-.49 2.67-1.47 3.58s-2.27 1.36-3.88 1.36h-6.67v6.86h-2.61v-19.21zm9.21 10.03c.84 0 1.52-.25 2.03-.75s.77-1.17.77-1.99v-2.61c0-.71-.23-1.29-.69-1.73s-1.06-.66-1.81-.66h-6.91v7.74z"/>
			<path d="m534.12 759.58c-1.02-.58-1.8-1.41-2.36-2.47s-.84-2.29-.84-3.7v-5.54c0-1.41.28-2.64.84-3.7s1.35-1.88 2.37-2.47 2.2-.88 3.54-.88h2.91c1.33 0 2.51.29 3.52.88 1.02.59 1.8 1.41 2.36 2.47s.84 2.3.84 3.7v5.54c0 1.41-.28 2.64-.84 3.7s-1.35 1.88-2.37 2.47-2.19.88-3.51.88h-2.93c-1.34 0-2.52-.3-3.53-.88zm6.4-1.46c1.24 0 2.25-.43 3.02-1.3s1.15-2.03 1.15-3.47v-5.43c0-1.44-.38-2.6-1.15-3.47s-1.77-1.3-3.02-1.3h-2.83c-1.24 0-2.25.43-3.02 1.3s-1.15 2.03-1.15 3.47v5.43c0 1.44.38 2.6 1.14 3.47s1.76 1.3 3 1.3z"/>
			<path d="m554.1 741.04h2.41l10.15 15v-15h2.55v19.2h-2.39l-10.18-14.95v14.95h-2.55v-19.2z"/>
			<path d="m577.13 759.69c-.38-.37-.56-.87-.56-1.51v-17.14h13.47v2.28h-10.86v5.98h10.04v2.25h-10.04v6.42h10.86v2.28h-11.38c-.65-.01-1.16-.2-1.53-.56z"/>
			<path d="m596.56 741.04h2.41l10.15 15v-15h2.55v19.2h-2.39l-10.18-14.95v14.95h-2.55v-19.2z"/>
			<path d="m623.74 743.31h-6.09v-2.28h14.78v2.28h-6.09v16.92h-2.61v-16.92z"/>
			<path d="m650.02 758.86c-1.06-1.06-1.59-2.49-1.59-4.28h2.55c0 1.08.31 1.94.92 2.58s1.42.96 2.43.96h3.04c1.01 0 1.81-.21 2.41-.64s.91-1 .91-1.71v-1.48c0-.57-.22-1.04-.64-1.43-.43-.38-1.04-.64-1.82-.77l-4.99-.82c-1.46-.24-2.59-.74-3.39-1.51s-1.19-1.73-1.19-2.88v-1.51c0-1.37.53-2.47 1.58-3.31 1.05-.83 2.44-1.25 4.16-1.25h3.1c1.08 0 2.03.22 2.87.67.83.45 1.48 1.08 1.93 1.89.46.81.69 1.75.69 2.81h-2.58c0-.91-.27-1.65-.8-2.21s-1.23-.84-2.11-.84h-3.1c-.93 0-1.69.21-2.26.62-.58.41-.86.97-.86 1.69v1.23c0 .59.21 1.07.62 1.45s1 .65 1.77.8l4.94.85c1.52.26 2.68.75 3.5 1.49.81.74 1.22 1.67 1.22 2.78v1.78c0 1.39-.53 2.51-1.6 3.35s-2.49 1.26-4.27 1.26h-3.15c-1.81.03-3.23-.5-4.29-1.57z"/>
			<path d="m674.62 752.83-7.08-11.79h2.83l5.57 9.41 5.57-9.41h2.82l-7.08 11.79v7.41h-2.63z"/>
			<path d="m690.31 758.86c-1.06-1.06-1.59-2.49-1.59-4.28h2.55c0 1.08.31 1.94.92 2.58s1.42.96 2.43.96h3.04c1.01 0 1.81-.21 2.41-.64s.91-1 .91-1.71v-1.48c0-.57-.22-1.04-.64-1.43-.43-.38-1.04-.64-1.82-.77l-4.99-.82c-1.46-.24-2.59-.74-3.39-1.51s-1.19-1.73-1.19-2.88v-1.51c0-1.37.53-2.47 1.58-3.31 1.05-.83 2.44-1.25 4.16-1.25h3.1c1.08 0 2.03.22 2.87.67.83.45 1.48 1.08 1.93 1.89.46.81.69 1.75.69 2.81h-2.58c0-.91-.27-1.65-.8-2.21s-1.23-.84-2.11-.84h-3.1c-.93 0-1.69.21-2.26.62-.58.41-.86.97-.86 1.69v1.23c0 .59.21 1.07.62 1.45s1 .65 1.77.8l4.94.85c1.52.26 2.68.75 3.5 1.49.81.74 1.22 1.67 1.22 2.78v1.78c0 1.39-.53 2.51-1.6 3.35s-2.49 1.26-4.27 1.26h-3.15c-1.81.03-3.23-.5-4.29-1.57z"/>
			<path d="m714.42 743.31h-6.09v-2.28h14.78v2.28h-6.09v16.92h-2.61v-16.92z"/>
			<path d="m729.66 759.69c-.38-.37-.56-.87-.56-1.51v-17.14h13.47v2.28h-10.87v5.98h10.04v2.25h-10.04v6.42h10.86v2.28h-11.38c-.64-.01-1.15-.2-1.52-.56z"/>
			<path d="m749.09 741.04h2.41l6.67 12.32 6.5-12.32h2.41v19.2h-2.55v-14.32l-5.05 9.44c-.22.4-.42.69-.62.85-.19.16-.42.25-.67.25h-.74l-5.79-10.53v14.32h-2.58v-19.21z"/>
		</g>
	</g>
</svg>
