<svg height="520.92004" width="718.30005" xmlns="http://www.w3.org/2000/svg" xmlns:xlink="http://www.w3.org/1999/xlink">
	<linearGradient id="a">
		<stop offset="0" stop-color="#ff4e03"/>
		<stop offset="1" stop-color="#ee8000"/>
	</linearGradient>
	<linearGradient id="b" gradientUnits="userSpaceOnUse" x1="-1.7994" x2="494.3052" xlink:href="#a" y1="217.3973" y2="217.3973"/>
	<linearGradient id="c" gradientUnits="userSpaceOnUse" x1="-1.7994" x2="494.3052" xlink:href="#a" y1="100.11061" y2="100.11061"/>
	<path d="m566.32 348.76001-131.68-89.56 11.58 71.74-163.21-103.42 9.45 58.51-292.45999634-199.990003 202.45999634 94.630003-12.42-76.85 154.64 97.98.59.36-.11-.73-14.33-88.93 235.49 160.15z" fill="url(#b)"/>
	<path d="m598.18.00000671v141.20000329l-86.77 59.02-86.8-59.02v-141.20000329l109.92 87.51000029-15.22-24.74z" fill="url(#c)"/>
	<g fill="#fff">
		<path d="m85.240004 411.70001h-15.34v-17.67h15.34v-6.24c0-9.64 2.88-17.1 8.65-22.39s13.889996-7.94 24.359996-7.94h10.88v17.49h-10.53c-4.4 0-7.64 1.04-9.73 3.12-2.08 2.08-3.12 5.38-3.12 9.9v6.07h21.41v17.67h-21.41v71.37h-20.519996v-71.38z"/>
		<path d="m152.43 480.39001c-5.53-2.74-9.81-6.6-12.85-11.6-3.03-5-4.55-10.76-4.55-17.31v-23.91c0-6.9 1.52-12.99 4.55-18.29 3.03-5.29 7.32-9.4 12.85-12.31s11.92-4.37 19.18-4.37h14.28c10.82 0 19.51 3.15 26.05 9.46s9.81 14.69 9.81 25.16v17.84h-66.2v6.42c0 4.76 1.46 8.56 4.37 11.42s6.81 4.28 11.69 4.28h13.74c4.76 0 8.59-1.16 11.51-3.48 2.91-2.32 4.37-5.38 4.37-9.19h20.16c0 9.04-3.33 16.3-9.99 21.77s-15.41 8.21-26.23 8.21h-13.56c-7.26.01-13.65-1.36-19.18-4.1zm49.16-50.67v-2.5c0-5.23-1.43-9.46-4.28-12.67s-6.6-4.82-11.24-4.82h-14.45c-4.88 0-8.83 1.7-11.86 5.09s-4.55 7.82-4.55 13.29v1.61z"/>
		<path d="m240.12 394.03001h19.09v11.6c2.62-3.93 6.07-7.08 10.35-9.46s8.56-3.57 12.85-3.57h11.06c9.16 0 16.5 2.92 22.04 8.74 5.53 5.83 8.3 13.5 8.3 23.02v58.7h-20.52v-58.17c0-4.28-1.1-7.76-3.3-10.44s-5.09-4.01-8.65-4.01h-11.06c-4.64 0-8.8 1.76-12.49 5.26-3.69 3.51-6.07 8-7.14 13.47v53.89h-20.52v-89.03z"/>
		<path d="m345.58 394.03001h19.09v11.6c2.61-3.93 6.07-7.08 10.35-9.46s8.56-3.57 12.85-3.57h11.06c9.16 0 16.5 2.92 22.04 8.74 5.53 5.83 8.3 13.5 8.3 23.02v58.7h-20.52v-58.17c0-4.28-1.1-7.76-3.3-10.44s-5.09-4.01-8.65-4.01h-11.06c-4.64 0-8.81 1.76-12.49 5.26-3.69 3.51-6.07 8-7.14 13.47v53.89h-20.52v-89.03z"/>
		<path d="m458.7 475.66001c-6.07-5.89-9.1-13.71-9.1-23.46v-25.52c0-10.23 3.03-18.47 9.1-24.71s14.1-9.37 24.09-9.37h14.63c9.52 0 17.19 3.03 23.02 9.1s8.74 14.1 8.74 24.09v15.7h-66.74v10.71c0 6.19 1.88 11.21 5.62 15.08 3.75 3.87 8.65 5.8 14.72 5.8h13.56c5.95 0 10.77-1.63 14.45-4.91 3.69-3.27 5.53-7.64 5.53-13.11h12.49c0 8.81-2.98 15.91-8.92 21.32-5.95 5.41-13.8 8.12-23.55 8.12h-13.56c-9.98 0-18.01-2.95-24.08-8.84zm57.63-45.23v-4.64c0-6.54-1.72-11.8-5.17-15.79-3.45-3.98-8.03-5.98-13.74-5.98h-14.63c-6.07 0-10.97 2.08-14.72 6.24-3.75 4.17-5.62 9.64-5.62 16.42v3.75z"/>
		<path d="m557.01 475.66001c-5.95-5.89-8.92-13.71-8.92-23.46v-25.52c0-10.23 2.97-18.47 8.92-24.71s13.74-9.37 23.38-9.37h14.63c9.16 0 16.53 2.56 22.13 7.67 5.59 5.12 8.39 11.84 8.39 20.16h-12.49c0-4.88-1.64-8.83-4.91-11.87-3.27-3.03-7.64-4.55-13.11-4.55h-14.63c-5.83 0-10.53 2.08-14.1 6.24-3.57 4.17-5.35 9.64-5.35 16.42v25.52c0 6.31 1.81 11.36 5.44 15.17s8.36 5.71 14.18 5.71h14.63c5.59 0 10.08-1.96 13.47-5.89s5.08-9.16 5.08-15.7h12.49c0 9.88-2.86 17.84-8.56 23.91-5.71 6.07-13.2 9.1-22.48 9.1h-14.63c-9.76.01-17.61-2.94-23.56-8.83z"/>
		<path d="m650.87 476.82001c-5.47-5.11-8.21-11.84-8.21-20.16h12.49c0 5 1.61 9.04 4.82 12.13s7.43 4.64 12.67 4.64h15.52c5.11 0 9.28-1.04 12.49-3.12s4.82-4.79 4.82-8.12v-6.07c0-2.26-.89-4.25-2.68-5.98-1.79-1.72-4.1-2.88-6.96-3.48l-30.87-5.35c-6.19-1.07-11.15-3.42-14.9-7.05s-5.62-7.88-5.62-12.76v-5.89c0-6.9 2.61-12.46 7.85-16.68 5.23-4.22 12.13-6.33 20.7-6.33h15.35c8.32 0 15.05 2.35 20.16 7.05s7.67 10.92 7.67 18.65h-12.49c-.12-4.4-1.58-7.94-4.37-10.62-2.8-2.68-6.46-4.02-10.97-4.02h-15.35c-4.76 0-8.56 1.1-11.42 3.3s-4.28 5.09-4.28 8.65v5.17c0 2.26.98 4.28 2.94 6.07 1.96 1.78 4.49 2.92 7.58 3.39l30.69 5.35c5.95 1.07 10.73 3.39 14.36 6.96s5.44 7.85 5.44 12.85v7.14c0 6.54-2.77 11.84-8.3 15.88-5.53 4.05-12.82 6.07-21.86 6.07h-15.52c-9.02.01-16.28-2.55-21.75-7.67z"/>
	</g>
	<g fill="#ee8000" transform="translate(-140.84 -239.53999)">
		<path d="m318.72 759.69c-.38-.37-.56-.87-.56-1.51v-17.14h13.47v2.28h-10.86v5.98h10.04v2.25h-10.04v6.42h10.86v2.28h-11.38c-.65-.01-1.16-.2-1.53-.56z"/>
		<path d="m338.15 741.04h2.41l10.15 15v-15h2.55v19.2h-2.39l-10.18-14.95v14.95h-2.55v-19.2z"/>
		<path d="m365.33 743.31h-6.09v-2.28h14.78v2.28h-6.09v16.92h-2.61v-16.92z"/>
		<path d="m380.28 741.04h2.61v19.2h-2.61z"/>
		<path d="m395.23 743.31h-6.09v-2.28h14.78v2.28h-6.09v16.92h-2.61v-16.92z"/>
		<path d="m415.23 752.83-7.08-11.79h2.83l5.57 9.41 5.57-9.41h2.82l-7.08 11.79v7.41h-2.63z"/>
		<path d="m443.75 759.58c-.99-.58-1.75-1.41-2.29-2.48s-.81-2.31-.81-3.72v-5.49c0-1.41.27-2.65.82-3.72s1.32-1.9 2.32-2.48c1-.59 2.15-.88 3.47-.88h2.91c1.24 0 2.35.27 3.31.81s1.7 1.29 2.22 2.26.78 2.08.78 3.35h-2.55c0-1.22-.34-2.21-1.03-2.96s-1.6-1.12-2.73-1.12h-2.91c-1.19 0-2.15.44-2.89 1.32s-1.11 2.04-1.11 3.48v5.38c0 1.44.36 2.61 1.07 3.48s1.65 1.32 2.83 1.32h2.96c1.17 0 2.11-.42 2.81-1.25s1.06-1.92 1.06-3.28h2.55c0 1.35-.27 2.55-.8 3.59s-1.28 1.85-2.25 2.41c-.97.57-2.09.85-3.37.85h-2.96c-1.29.01-2.42-.29-3.41-.87z"/>
		<path d="m465.49 759.58c-1.02-.58-1.8-1.41-2.36-2.47s-.84-2.29-.84-3.7v-5.54c0-1.41.28-2.64.84-3.7s1.35-1.88 2.37-2.47 2.2-.88 3.54-.88h2.91c1.33 0 2.51.29 3.52.88s1.8 1.41 2.36 2.47.84 2.3.84 3.7v5.54c0 1.41-.28 2.64-.84 3.7s-1.35 1.88-2.37 2.47-2.19.88-3.51.88h-2.93c-1.34 0-2.52-.3-3.53-.88zm6.4-1.46c1.24 0 2.25-.43 3.02-1.3s1.15-2.03 1.15-3.47v-5.43c0-1.44-.38-2.6-1.15-3.47s-1.77-1.3-3.02-1.3h-2.83c-1.24 0-2.25.43-3.02 1.3s-1.15 2.03-1.15 3.47v5.43c0 1.44.38 2.6 1.14 3.47s1.76 1.3 3 1.3z"/>
		<path d="m485.47 741.04h2.41l6.67 12.32 6.5-12.32h2.41v19.2h-2.55v-14.32l-5.05 9.44c-.22.4-.42.69-.62.85-.19.16-.42.25-.67.25h-.74l-5.79-10.53v14.32h-2.58v-19.21z"/>
		<path d="m510.82 741.04h9.57c1.52 0 2.74.43 3.66 1.28s1.39 1.98 1.39 3.39v2.74c0 1.48-.49 2.67-1.47 3.58s-2.27 1.36-3.88 1.36h-6.67v6.86h-2.61v-19.21zm9.21 10.03c.84 0 1.52-.25 2.03-.75s.77-1.17.77-1.99v-2.61c0-.71-.23-1.29-.69-1.73s-1.06-.66-1.81-.66h-6.91v7.74z"/>
		<path d="m534.12 759.58c-1.02-.58-1.8-1.41-2.36-2.47s-.84-2.29-.84-3.7v-5.54c0-1.41.28-2.64.84-3.7s1.35-1.88 2.37-2.47 2.2-.88 3.54-.88h2.91c1.33 0 2.51.29 3.52.88 1.02.59 1.8 1.41 2.36 2.47s.84 2.3.84 3.7v5.54c0 1.41-.28 2.64-.84 3.7s-1.35 1.88-2.37 2.47-2.19.88-3.51.88h-2.93c-1.34 0-2.52-.3-3.53-.88zm6.4-1.46c1.24 0 2.25-.43 3.02-1.3s1.15-2.03 1.15-3.47v-5.43c0-1.44-.38-2.6-1.15-3.47s-1.77-1.3-3.02-1.3h-2.83c-1.24 0-2.25.43-3.02 1.3s-1.15 2.03-1.15 3.47v5.43c0 1.44.38 2.6 1.14 3.47s1.76 1.3 3 1.3z"/>
		<path d="m554.1 741.04h2.41l10.15 15v-15h2.55v19.2h-2.39l-10.18-14.95v14.95h-2.55v-19.2z"/>
		<path d="m577.13 759.69c-.38-.37-.56-.87-.56-1.51v-17.14h13.47v2.28h-10.86v5.98h10.04v2.25h-10.04v6.42h10.86v2.28h-11.38c-.65-.01-1.16-.2-1.53-.56z"/>
		<path d="m596.56 741.04h2.41l10.15 15v-15h2.55v19.2h-2.39l-10.18-14.95v14.95h-2.55v-19.2z"/>
		<path d="m623.74 743.31h-6.09v-2.28h14.78v2.28h-6.09v16.92h-2.61v-16.92z"/>
		<path d="m650.02 758.86c-1.06-1.06-1.59-2.49-1.59-4.28h2.55c0 1.08.31 1.94.92 2.58s1.42.96 2.43.96h3.04c1.01 0 1.81-.21 2.41-.64s.91-1 .91-1.71v-1.48c0-.57-.22-1.04-.64-1.43-.43-.38-1.04-.64-1.82-.77l-4.99-.82c-1.46-.24-2.59-.74-3.39-1.51s-1.19-1.73-1.19-2.88v-1.51c0-1.37.53-2.47 1.58-3.31 1.05-.83 2.44-1.25 4.16-1.25h3.1c1.08 0 2.03.22 2.87.67.83.45 1.48 1.08 1.93 1.89.46.81.69 1.75.69 2.81h-2.58c0-.91-.27-1.65-.8-2.21s-1.23-.84-2.11-.84h-3.1c-.93 0-1.69.21-2.26.62-.58.41-.86.97-.86 1.69v1.23c0 .59.21 1.07.62 1.45s1 .65 1.77.8l4.94.85c1.52.26 2.68.75 3.5 1.49.81.74 1.22 1.67 1.22 2.78v1.78c0 1.39-.53 2.51-1.6 3.35s-2.49 1.26-4.27 1.26h-3.15c-1.81.03-3.23-.5-4.29-1.57z"/>
		<path d="m674.62 752.83-7.08-11.79h2.83l5.57 9.41 5.57-9.41h2.82l-7.08 11.79v7.41h-2.63z"/>
		<path d="m690.31 758.86c-1.06-1.06-1.59-2.49-1.59-4.28h2.55c0 1.08.31 1.94.92 2.58s1.42.96 2.43.96h3.04c1.01 0 1.81-.21 2.41-.64s.91-1 .91-1.71v-1.48c0-.57-.22-1.04-.64-1.43-.43-.38-1.04-.64-1.82-.77l-4.99-.82c-1.46-.24-2.59-.74-3.39-1.51s-1.19-1.73-1.19-2.88v-1.51c0-1.37.53-2.47 1.58-3.31 1.05-.83 2.44-1.25 4.16-1.25h3.1c1.08 0 2.03.22 2.87.67.83.45 1.48 1.08 1.93 1.89.46.81.69 1.75.69 2.81h-2.58c0-.91-.27-1.65-.8-2.21s-1.23-.84-2.11-.84h-3.1c-.93 0-1.69.21-2.26.62-.58.41-.86.97-.86 1.69v1.23c0 .59.21 1.07.62 1.45s1 .65 1.77.8l4.94.85c1.52.26 2.68.75 3.5 1.49.81.74 1.22 1.67 1.22 2.78v1.78c0 1.39-.53 2.51-1.6 3.35s-2.49 1.26-4.27 1.26h-3.15c-1.81.03-3.23-.5-4.29-1.57z"/>
		<path d="m714.42 743.31h-6.09v-2.28h14.78v2.28h-6.09v16.92h-2.61v-16.92z"/>
		<path d="m729.66 759.69c-.38-.37-.56-.87-.56-1.51v-17.14h13.47v2.28h-10.87v5.98h10.04v2.25h-10.04v6.42h10.86v2.28h-11.38c-.64-.01-1.15-.2-1.52-.56z"/>
		<path d="m749.09 741.04h2.41l6.67 12.32 6.5-12.32h2.41v19.2h-2.55v-14.32l-5.05 9.44c-.22.4-.42.69-.62.85-.19.16-.42.25-.67.25h-.74l-5.79-10.53v14.32h-2.58v-19.21z"/>
	</g>
</svg>
