<?xml version="1.0" encoding="UTF-8" standalone="no"?><!DOCTYPE svg PUBLIC "-//W3C//DTD SVG 1.1//EN" "http://www.w3.org/Graphics/SVG/1.1/DTD/svg11.dtd"><svg width="100%" height="100%" viewBox="0 0 533 79" version="1.1" xmlns="http://www.w3.org/2000/svg" xmlns:xlink="http://www.w3.org/1999/xlink" xml:space="preserve" xmlns:serif="http://www.serif.com/" style="fill-rule:evenodd;clip-rule:evenodd;stroke-linejoin:round;stroke-miterlimit:2;"><g><g><path d="M13.39,62.009c-3.974,0 -7.17,-1.382 -9.675,-4.06c-2.506,-2.678 -3.715,-6.22 -3.715,-10.626l0,-29.113l6.22,-0l0,29.286c0,2.678 0.691,4.924 1.987,6.565c1.296,1.642 3.024,2.419 5.183,2.419l5.357,0c2.678,0 5.097,-1.036 7.343,-3.196c2.246,-2.16 3.714,-4.838 4.319,-8.034l0,-27.04l6.22,-0l0,43.108l-6.047,0l-0,-6.565c-1.296,2.073 -3.11,3.801 -5.27,5.183c-2.16,1.382 -4.319,2.073 -6.393,2.073l-5.529,0Z" style="fill:#284aaf;fill-rule:nonzero;"/></g><g><path d="M59.436,62.009c-4.406,0 -7.862,-1.209 -10.54,-3.714c-2.678,-2.506 -3.974,-5.702 -3.974,-9.762l6.048,-0c-0,2.418 0.777,4.405 2.332,5.874c1.555,1.469 3.629,2.246 6.134,2.246l7.516,0c2.505,0 4.492,-0.518 6.047,-1.468c1.555,-1.037 2.333,-2.333 2.333,-3.974l-0,-2.938c-0,-1.123 -0.432,-2.073 -1.296,-2.85c-0.864,-0.864 -1.987,-1.469 -3.369,-1.728l-14.946,-2.592c-3.023,-0.518 -5.442,-1.641 -7.257,-3.369c-1.814,-1.814 -2.678,-3.888 -2.678,-6.22l0,-2.851c0,-3.369 1.296,-6.047 3.802,-8.034c2.505,-2.074 5.874,-3.11 10.021,-3.11l7.429,-0c4.06,-0 7.257,1.123 9.762,3.455c2.505,2.246 3.715,5.27 3.715,8.985l-6.047,-0c-0.087,-2.16 -0.778,-3.801 -2.16,-5.097c-1.296,-1.296 -3.11,-1.987 -5.27,-1.987l-7.429,-0c-2.333,-0 -4.147,0.518 -5.529,1.641c-1.382,1.037 -2.074,2.419 -2.074,4.147l0,2.505c0,1.123 0.432,2.074 1.383,2.938c0.95,0.863 2.246,1.382 3.714,1.641l14.859,2.592c2.851,0.518 5.184,1.641 6.912,3.369c1.814,1.728 2.678,3.801 2.678,6.22l-0,3.455c-0,3.197 -1.383,5.702 -4.061,7.689c-2.678,1.987 -6.133,2.937 -10.539,2.937l-7.516,0Z" style="fill:#284aaf;fill-rule:nonzero;"/></g><g><path d="M94.165,11.731c-1.383,-0 -2.506,-0.432 -3.37,-1.296c-0.864,-0.864 -1.296,-1.987 -1.296,-3.369c0,-1.383 0.432,-2.506 1.296,-3.37c0.864,-0.863 1.987,-1.295 3.37,-1.295c1.382,-0 2.505,0.432 3.369,1.295c0.864,0.864 1.296,1.987 1.296,3.37c-0,1.382 -0.432,2.505 -1.296,3.369c-0.864,0.864 -1.987,1.296 -3.369,1.296Zm-3.111,6.479l6.221,-0l-0,43.108l-6.221,0l0,-43.108Z" style="fill:#284aaf;fill-rule:nonzero;"/></g><g><path d="M109.369,18.21l6.047,-0l0,6.393c1.296,-2.074 3.024,-3.801 5.184,-5.097c2.16,-1.296 4.233,-1.987 6.393,-1.987l5.874,-0c3.974,-0 7.17,1.382 9.589,4.06c2.506,2.678 3.715,6.22 3.715,10.626l0,29.113l-6.22,0l0,-29.286c0,-2.678 -0.691,-4.838 -1.987,-6.479c-1.296,-1.641 -3.11,-2.505 -5.27,-2.505l-5.529,-0c-2.678,-0 -5.183,1.036 -7.429,3.196c-2.16,2.16 -3.542,4.838 -4.147,8.207l0,26.867l-6.22,0l0,-43.108Z" style="fill:#284aaf;fill-rule:nonzero;"/></g><g><path d="M170.187,78.855c-3.801,0 -6.911,-1.036 -9.416,-3.11c-2.505,-1.987 -3.888,-4.665 -4.147,-8.034l6.22,0c0.259,1.728 1.037,3.11 2.333,4.147c1.382,1.123 3.023,1.641 5.01,1.641l7.171,0c3.023,0 5.269,-1.037 6.911,-3.024c1.641,-1.986 2.505,-4.751 2.505,-8.293l0,-6.652c-1.296,1.728 -2.937,3.11 -5.01,4.233c-1.987,1.037 -3.974,1.555 -5.875,1.555l-6.306,0c-2.938,0 -5.529,-0.691 -7.862,-2.073c-2.332,-1.382 -4.06,-3.283 -5.356,-5.788c-1.296,-2.506 -1.901,-5.356 -1.901,-8.639l0,-10.108c0,-5.097 1.469,-9.243 4.406,-12.44c3.024,-3.196 6.911,-4.751 11.749,-4.751l6.048,-0c1.814,-0 3.714,0.518 5.701,1.555c1.987,1.036 3.456,2.332 4.579,3.974l-0,-4.838l6.047,-0l0,43.972c0,5.27 -1.382,9.33 -4.147,12.267c-2.764,2.938 -6.565,4.406 -11.489,4.406l-7.171,0Zm5.702,-23.066c2.851,0 5.356,-1.123 7.343,-3.369c2.073,-2.332 3.283,-5.183 3.542,-8.725l0,-10.626c-0.259,-2.937 -1.296,-5.356 -3.283,-7.17c-1.9,-1.901 -4.146,-2.851 -6.824,-2.851l-5.875,-0c-3.024,-0 -5.529,1.036 -7.343,3.196c-1.814,2.16 -2.765,4.924 -2.765,8.466l0,10.108c0,3.196 0.864,5.874 2.506,7.948c1.728,1.987 3.887,3.023 6.565,3.023l6.134,0Z" style="fill:#284aaf;fill-rule:nonzero;"/></g><g><path d="M227.895,25.207l-7.43,0l0,-6.997l7.43,-0l-0,-3.197c-0,-4.751 1.296,-8.293 3.887,-10.798c2.592,-2.506 6.307,-3.715 11.231,-3.715l4.233,-0l-0,6.911l-4.233,0c-2.419,0 -4.233,0.605 -5.356,1.901c-1.123,1.209 -1.728,3.11 -1.728,5.788l-0,3.11l10.367,-0l-0,6.997l-10.367,0l-0,36.111l-8.034,0l-0,-36.111Z" style="fill:#ff4e03;fill-rule:nonzero;stroke:#ff4e03;stroke-width:0.86px;"/></g><g><path d="M265.562,62.009c-5.097,0 -9.157,-1.468 -12.267,-4.319c-3.024,-2.937 -4.579,-6.739 -4.579,-11.49l-0,-11.922c-0,-5.097 1.555,-9.157 4.579,-12.181c3.11,-3.023 7.17,-4.578 12.267,-4.578l7.084,-0c4.924,-0 8.812,1.468 11.835,4.492c3.024,3.024 4.492,6.998 4.492,11.922l0,8.12l-32.223,0l0,4.147c0,2.678 0.778,4.751 2.419,6.393c1.642,1.641 3.715,2.419 6.393,2.419l6.652,-0c2.592,-0 4.665,-0.691 6.306,-1.987c1.642,-1.382 2.419,-3.197 2.419,-5.443l7.862,0c-0,4.32 -1.555,7.775 -4.579,10.453c-3.024,2.678 -7.084,3.974 -12.094,3.974l-6.566,0Zm15.377,-26.348l0,-1.728c0,-2.851 -0.777,-5.184 -2.332,-6.911c-1.469,-1.728 -3.456,-2.592 -5.961,-2.592l-7.084,-0c-2.678,-0 -4.751,0.95 -6.393,2.764c-1.641,1.815 -2.419,4.147 -2.419,7.171l0,1.296l24.189,-0Z" style="fill:#ff4e03;fill-rule:nonzero;stroke:#ff4e03;stroke-width:0.86px;"/></g><g><path d="M296.317,18.21l7.688,-0l0,5.961c1.296,-1.987 2.938,-3.542 5.011,-4.752c2.16,-1.296 4.233,-1.9 6.306,-1.9l5.702,-0c4.147,-0 7.516,1.382 10.021,4.146c2.592,2.765 3.888,6.393 3.888,10.885l-0,28.768l-8.034,0l-0,-28.768c-0,-2.332 -0.605,-4.233 -1.815,-5.701c-1.209,-1.469 -2.764,-2.246 -4.751,-2.246l-5.356,-0c-2.505,-0 -4.752,0.95 -6.739,2.851c-1.986,1.9 -3.282,4.405 -3.887,7.429l-0,26.435l-8.034,0l-0,-43.108Z" style="fill:#ff4e03;fill-rule:nonzero;stroke:#ff4e03;stroke-width:0.86px;"/></g><g><path d="M343.917,18.21l7.689,-0l0,5.961c1.296,-1.987 2.937,-3.542 5.011,-4.752c2.159,-1.296 4.233,-1.9 6.306,-1.9l5.702,-0c4.147,-0 7.516,1.382 10.021,4.146c2.592,2.765 3.888,6.393 3.888,10.885l-0,28.768l-8.035,0l0,-28.768c0,-2.332 -0.604,-4.233 -1.814,-5.701c-1.209,-1.469 -2.764,-2.246 -4.751,-2.246l-5.356,-0c-2.506,-0 -4.752,0.95 -6.739,2.851c-1.987,1.9 -3.283,4.405 -3.887,7.429l-0,26.435l-8.035,0l0,-43.108Z" style="fill:#ff4e03;fill-rule:nonzero;stroke:#ff4e03;stroke-width:0.86px;"/></g><g><path d="M406.377,62.009c-4.838,0 -8.725,-1.382 -11.662,-4.233c-2.938,-2.851 -4.406,-6.652 -4.406,-11.403l-0,-12.354c-0,-4.924 1.468,-8.898 4.406,-11.922c2.937,-3.023 6.824,-4.578 11.662,-4.578l7.084,-0c4.579,-0 8.293,1.468 11.144,4.406c2.851,2.937 4.233,6.824 4.233,11.662l0,7.602l-32.309,0l-0,5.184c-0,3.023 0.864,5.442 2.678,7.343c1.814,1.814 4.233,2.764 7.17,2.764l6.566,0c2.851,0 5.183,-0.777 6.997,-2.332c1.814,-1.642 2.678,-3.715 2.678,-6.393l6.048,0c-0,4.233 -1.469,7.689 -4.32,10.367c-2.851,2.591 -6.652,3.887 -11.403,3.887l-6.566,0Zm16.241,-26.176l0,-2.246c0,-3.196 -0.864,-5.702 -2.505,-7.602c-1.641,-1.987 -3.887,-2.937 -6.652,-2.937l-7.084,-0c-2.937,-0 -5.356,1.036 -7.17,3.023c-1.814,1.987 -2.678,4.665 -2.678,7.948l-0,1.814l26.089,0Z" style="fill:#ff4e03;fill-rule:nonzero;"/></g><g><path d="M451.126,62.009c-4.751,0 -8.552,-1.382 -11.403,-4.233c-2.851,-2.851 -4.32,-6.652 -4.32,-11.403l0,-12.354c0,-4.924 1.469,-8.898 4.32,-11.922c2.851,-3.023 6.652,-4.578 11.317,-4.578l7.084,-0c4.406,-0 8.034,1.209 10.712,3.714c2.678,2.506 4.06,5.702 4.06,9.762l-6.047,0c0,-2.332 -0.777,-4.233 -2.419,-5.701c-1.555,-1.469 -3.628,-2.246 -6.306,-2.246l-7.084,-0c-2.851,-0 -5.097,1.036 -6.825,3.023c-1.728,1.987 -2.592,4.665 -2.592,7.948l0,12.354c0,3.023 0.864,5.529 2.592,7.343c1.814,1.814 4.06,2.764 6.911,2.764l7.084,0c2.678,0 4.838,-0.95 6.479,-2.85c1.642,-1.901 2.506,-4.406 2.506,-7.603l6.047,0c-0,4.752 -1.382,8.639 -4.147,11.576c-2.764,2.938 -6.393,4.406 -10.885,4.406l-7.084,0Z" style="fill:#ff4e03;fill-rule:nonzero;"/></g><g><path d="M493.112,62.009c-4.406,0 -7.862,-1.209 -10.54,-3.714c-2.678,-2.506 -3.974,-5.702 -3.974,-9.762l6.048,-0c-0,2.418 0.777,4.405 2.332,5.874c1.555,1.469 3.628,2.246 6.134,2.246l7.516,0c2.505,0 4.492,-0.518 6.047,-1.468c1.555,-1.037 2.332,-2.333 2.332,-3.974l0,-2.938c0,-1.123 -0.432,-2.073 -1.295,-2.85c-0.864,-0.864 -1.987,-1.469 -3.37,-1.728l-14.945,-2.592c-3.024,-0.518 -5.443,-1.641 -7.257,-3.369c-1.814,-1.814 -2.678,-3.888 -2.678,-6.22l0,-2.851c0,-3.369 1.296,-6.047 3.801,-8.034c2.506,-2.074 5.875,-3.11 10.022,-3.11l7.429,-0c4.06,-0 7.257,1.123 9.762,3.455c2.505,2.246 3.715,5.27 3.715,8.985l-6.047,-0c-0.087,-2.16 -0.778,-3.801 -2.16,-5.097c-1.296,-1.296 -3.11,-1.987 -5.27,-1.987l-7.429,-0c-2.333,-0 -4.147,0.518 -5.529,1.641c-1.383,1.037 -2.074,2.419 -2.074,4.147l0,2.505c0,1.123 0.432,2.074 1.382,2.938c0.951,0.863 2.247,1.382 3.715,1.641l14.859,2.592c2.851,0.518 5.184,1.641 6.911,3.369c1.815,1.728 2.678,3.801 2.678,6.22l0,3.455c0,3.197 -1.382,5.702 -4.06,7.689c-2.678,1.987 -6.134,2.937 -10.539,2.937l-7.516,0Z" style="fill:#ff4e03;fill-rule:nonzero;"/></g><g><path d="M527.321,30.564c-1.641,-0 -2.937,-0.519 -3.974,-1.555c-0.95,-1.037 -1.469,-2.333 -1.469,-3.974c0,-1.642 0.519,-2.938 1.469,-3.888c1.037,-1.037 2.333,-1.555 3.974,-1.555c1.641,0 2.937,0.518 3.974,1.555c1.037,0.95 1.555,2.246 1.555,3.888c-0,1.641 -0.518,2.937 -1.555,3.974c-0.95,1.036 -2.333,1.555 -3.974,1.555Zm-10.194,37.665l1.728,-1.382c3.283,-2.419 4.924,-5.615 4.924,-9.503l0,-4.665l8.034,0l0,4.665c0,6.825 -2.591,11.922 -7.688,15.464l-2.074,1.469l-4.924,-6.048Z" style="fill:#808080;fill-rule:nonzero;"/></g></g></svg>