<?xml version="1.0" encoding="UTF-8" standalone="no"?>
<svg
   version="1.1"
   id="svg11"
   sodipodi:docname="Fennecs Logo Horizontal (1).svg"
   width="800.01001"
   height="152.23999"
   xmlns:inkscape="http://www.inkscape.org/namespaces/inkscape"
   xmlns:sodipodi="http://sodipodi.sourceforge.net/DTD/sodipodi-0.dtd"
   xmlns:xlink="http://www.w3.org/1999/xlink"
   xmlns="http://www.w3.org/2000/svg"
   xmlns:svg="http://www.w3.org/2000/svg">
  <defs
     id="defs11" />
  <sodipodi:namedview
     id="namedview11"
     pagecolor="#505050"
     bordercolor="#ffffff"
     borderopacity="1"
     inkscape:showpageshadow="0"
     inkscape:pageopacity="0"
     inkscape:pagecheckerboard="1"
     inkscape:deskcolor="#505050"
     inkscape:zoom="0.54041667"
     inkscape:cx="355.28142"
     inkscape:cy="430.22359"
     inkscape:window-width="1350"
     inkscape:window-height="1273"
     inkscape:window-x="1641"
     inkscape:window-y="906"
     inkscape:window-maximized="0"
     inkscape:current-layer="svg11" />
  <linearGradient
     id="a">
    <stop
       offset="0"
       stop-color="#ff4e03"
       id="stop1" />
    <stop
       offset="1"
       stop-color="#ee8000"
       id="stop2" />
  </linearGradient>
  <linearGradient
     id="b"
     gradientUnits="userSpaceOnUse"
     x1="99.212601"
     x2="315.76089"
     xlink:href="#a"
     y1="518.77618"
     y2="518.77618"
     gradientTransform="translate(-100,-423.88)" />
  <linearGradient
     id="c"
     gradientUnits="userSpaceOnUse"
     x1="99.212601"
     x2="315.76089"
     xlink:href="#a"
     y1="467.58081"
     y2="467.58081"
     gradientTransform="translate(-100,-423.88)" />
  <path
     d="m 247.19,152.24 -57.47,-39.1 5.05,31.32 L 123.53,99.319995 127.66,124.85 0,37.559995 l 88.37,41.3 -5.42,-33.54 67.5,42.77 0.26,0.16 -0.05,-0.32 -6.26,-38.82 L 247.19,119.01 Z"
     fill="url(#b)"
     id="path3"
     style="fill:url(#b)" />
  <path
     d="M 261.1,-4.8828125e-6 V 61.629995 l -37.87,25.77 -37.89,-25.77 V -4.8828125e-6 L 233.32,38.199995 l -6.64,-10.8 z"
     fill="url(#c)"
     id="path4"
     style="fill:url(#c)" />
  <g
     fill="#142458"
     id="g11"
     transform="translate(-100,-423.88)">
    <path
       d="m 412.87,492.07 h -11.81 v -13.59 h 11.81 v -4.81 c 0,-7.41 2.22,-13.16 6.66,-17.23 4.44,-4.07 10.69,-6.11 18.74,-6.11 h 8.37 v 13.46 h -8.1 c -3.39,0 -5.88,0.8 -7.48,2.4 -1.6,1.6 -2.4,4.14 -2.4,7.62 v 4.67 h 16.48 v 13.59 h -16.48 v 54.92 h -15.79 z"
       id="path5" />
    <path
       d="m 464.57,544.93 c -4.26,-2.1 -7.55,-5.08 -9.89,-8.92 -2.34,-3.84 -3.5,-8.28 -3.5,-13.32 v -18.4 c 0,-5.31 1.17,-10 3.5,-14.07 2.33,-4.07 5.63,-7.23 9.89,-9.47 4.26,-2.24 9.18,-3.36 14.76,-3.36 h 10.98 c 8.33,0 15.01,2.43 20.05,7.28 5.03,4.85 7.55,11.31 7.55,19.36 v 13.73 h -50.94 v 4.94 c 0,3.66 1.12,6.59 3.36,8.79 2.24,2.2 5.24,3.3 8.99,3.3 h 10.57 c 3.66,0 6.61,-0.89 8.86,-2.68 2.24,-1.79 3.36,-4.14 3.36,-7.07 h 15.51 c 0,6.96 -2.56,12.54 -7.69,16.75 -5.13,4.21 -11.85,6.32 -20.18,6.32 h -10.44 c -5.57,-0.02 -10.49,-1.07 -14.74,-3.18 z m 37.82,-38.99 v -1.92 c 0,-4.03 -1.1,-7.28 -3.3,-9.75 -2.2,-2.47 -5.08,-3.71 -8.65,-3.71 h -11.12 c -3.75,0 -6.8,1.3 -9.13,3.91 -2.33,2.61 -3.5,6.02 -3.5,10.23 v 1.24 z"
       id="path6" />
    <path
       d="m 532.05,478.48 h 14.69 v 8.92 c 2.01,-3.02 4.67,-5.45 7.96,-7.28 3.29,-1.83 6.59,-2.75 9.88,-2.75 h 8.51 c 7.05,0 12.7,2.24 16.96,6.73 4.26,4.49 6.39,10.39 6.39,17.71 v 45.17 h -15.79 v -44.76 c 0,-3.3 -0.85,-5.97 -2.54,-8.03 -1.69,-2.06 -3.91,-3.09 -6.66,-3.09 h -8.51 c -3.57,0 -6.77,1.35 -9.61,4.05 -2.84,2.7 -4.67,6.16 -5.49,10.37 v 41.46 h -15.79 z"
       id="path7" />
    <path
       d="m 613.19,478.48 h 14.69 v 8.92 c 2.01,-3.02 4.67,-5.45 7.96,-7.28 3.3,-1.83 6.59,-2.75 9.89,-2.75 h 8.51 c 7.05,0 12.7,2.24 16.96,6.73 4.26,4.49 6.38,10.39 6.38,17.71 v 45.17 h -15.79 v -44.76 c 0,-3.3 -0.85,-5.97 -2.54,-8.03 -1.69,-2.06 -3.91,-3.09 -6.66,-3.09 h -8.51 c -3.57,0 -6.78,1.35 -9.61,4.05 -2.84,2.7 -4.67,6.16 -5.49,10.37 v 41.46 h -15.79 z"
       id="path8" />
    <path
       d="m 700.23,541.3 c -4.67,-4.53 -7,-10.55 -7,-18.05 v -19.63 c 0,-7.87 2.33,-14.21 7,-19.02 4.67,-4.81 10.85,-7.21 18.54,-7.21 h 11.26 c 7.32,0 13.23,2.33 17.71,7 4.48,4.67 6.73,10.85 6.73,18.54 V 515 h -51.35 v 8.24 c 0,4.76 1.44,8.63 4.33,11.6 2.88,2.98 6.66,4.46 11.33,4.46 h 10.43 c 4.58,0 8.28,-1.26 11.12,-3.78 2.84,-2.52 4.26,-5.88 4.26,-10.09 h 9.61 c 0,6.78 -2.29,12.24 -6.87,16.41 -4.58,4.17 -10.62,6.25 -18.12,6.25 h -10.43 c -7.7,0 -13.88,-2.26 -18.55,-6.79 z m 44.35,-34.81 v -3.57 c 0,-5.03 -1.33,-9.08 -3.98,-12.15 -2.66,-3.07 -6.18,-4.6 -10.57,-4.6 h -11.26 c -4.67,0 -8.44,1.6 -11.33,4.81 -2.88,3.21 -4.33,7.41 -4.33,12.63 v 2.88 z"
       id="path9" />
    <path
       d="m 775.88,541.3 c -4.58,-4.53 -6.86,-10.55 -6.86,-18.05 v -19.63 c 0,-7.87 2.29,-14.21 6.86,-19.02 4.58,-4.81 10.57,-7.21 17.99,-7.21 h 11.26 c 7.05,0 12.72,1.97 17.02,5.9 4.3,3.94 6.45,9.11 6.45,15.51 H 819 c 0,-3.75 -1.26,-6.8 -3.78,-9.13 -2.52,-2.33 -5.88,-3.5 -10.09,-3.5 h -11.26 c -4.49,0 -8.1,1.6 -10.85,4.81 -2.75,3.21 -4.12,7.41 -4.12,12.63 v 19.63 c 0,4.85 1.4,8.74 4.19,11.67 2.79,2.93 6.43,4.39 10.91,4.39 h 11.26 c 4.3,0 7.76,-1.51 10.37,-4.53 2.61,-3.02 3.91,-7.05 3.91,-12.08 h 9.61 c 0,7.6 -2.2,13.73 -6.59,18.4 -4.39,4.67 -10.16,7 -17.3,7 H 794 c -7.5,0 -13.54,-2.26 -18.12,-6.79 z"
       id="path10" />
    <path
       d="m 848.1,542.19 c -4.21,-3.93 -6.32,-9.11 -6.32,-15.51 h 9.61 c 0,3.84 1.24,6.96 3.71,9.34 2.47,2.38 5.72,3.57 9.75,3.57 h 11.94 c 3.93,0 7.14,-0.8 9.61,-2.4 2.47,-1.6 3.71,-3.68 3.71,-6.25 v -4.67 c 0,-1.74 -0.69,-3.27 -2.06,-4.6 -1.37,-1.33 -3.16,-2.22 -5.35,-2.68 l -23.75,-4.12 c -4.76,-0.82 -8.58,-2.63 -11.46,-5.42 -2.88,-2.79 -4.33,-6.06 -4.33,-9.82 v -4.53 c 0,-5.31 2.01,-9.59 6.04,-12.84 4.03,-3.25 9.34,-4.87 15.93,-4.87 h 11.81 c 6.41,0 11.58,1.81 15.51,5.42 3.94,3.62 5.9,8.4 5.9,14.35 h -9.61 c -0.09,-3.39 -1.21,-6.11 -3.36,-8.17 -2.15,-2.06 -4.97,-3.09 -8.44,-3.09 h -11.81 c -3.66,0 -6.59,0.85 -8.79,2.54 -2.2,1.69 -3.3,3.91 -3.3,6.66 v 3.98 c 0,1.74 0.76,3.3 2.27,4.67 1.51,1.37 3.45,2.24 5.84,2.61 l 23.62,4.12 c 4.58,0.82 8.26,2.61 11.05,5.35 2.79,2.75 4.19,6.04 4.19,9.89 v 5.49 c 0,5.03 -2.13,9.11 -6.39,12.22 -4.26,3.11 -9.86,4.67 -16.82,4.67 h -11.94 c -6.96,-0.01 -12.55,-1.97 -16.76,-5.91 z"
       id="path11" />
  </g>
</svg>
